<svg width="62" height="14" viewBox="0 0 62 14" fill="none" xmlns="http://www.w3.org/2000/svg">
<path fill-rule="evenodd" clip-rule="evenodd" d="M7.99121 14C5.49035 14 3.17946 12.6658 1.92903 10.5C0.678604 8.33419 0.678604 5.66581 1.92903 3.5C3.17946 1.33419 5.49035 0 7.99121 0C11.8572 0 14.9912 3.13401 14.9912 7C14.9912 10.866 11.8572 14 7.99121 14ZM31.0022 14C28.5014 14 26.1905 12.6658 24.94 10.5C23.6896 8.33419 23.6896 5.66581 24.94 3.5C26.1905 1.33419 28.5014 0 31.0022 0C34.8682 0 38.0022 3.13401 38.0022 7C38.0022 10.866 34.8682 14 31.0022 14ZM47.951 10.5C49.2015 12.6658 51.5123 14 54.0132 14C57.8792 14 61.0132 10.866 61.0132 7C61.0132 3.13401 57.8792 0 54.0132 0C51.5123 0 49.2015 1.33419 47.951 3.5C46.7006 5.66581 46.7006 8.33419 47.951 10.5Z" fill="#FFFFFF"/>
</svg>
